<?xml version="1.0" encoding="UTF-8" standalone="no"?>
<!DOCTYPE svg PUBLIC "-//W3C//DTD SVG 1.1//EN" "http://www.w3.org/Graphics/SVG/1.1/DTD/svg11.dtd">
<svg width="100%" height="100%" viewBox="0 0 893 230" version="1.1" xmlns="http://www.w3.org/2000/svg" xmlns:xlink="http://www.w3.org/1999/xlink" xml:space="preserve" xmlns:serif="http://www.serif.com/" style="fill-rule:evenodd;clip-rule:evenodd;stroke-miterlimit:1.5;">
    <g transform="matrix(1,0,0,1,-3220.79,-3630.48)">
        <g transform="matrix(0.407848,0,0,0.407848,2995.51,2612.52)">
            <g transform="matrix(384.757,0,0,384.757,537.74,2771.03)">
                <path d="M0.038,-0.002L0.038,-0.711L0.137,-0.711L0.353,-0.24L0.569,-0.711L0.667,-0.711L0.667,-0.002L0.568,-0.002L0.568,-0.467L0.398,-0.1L0.353,-0L0.308,-0.1L0.138,-0.467L0.138,-0.002L0.038,-0.002Z" style="fill:rgb(254,255,254);fill-rule:nonzero;"/>
            </g>
            <g transform="matrix(384.757,0,0,384.757,809.378,2771.03)">
                <path d="M0.015,-0.002L0.247,-0.711L0.353,-0.711L0.586,-0.002L0.48,-0.002L0.428,-0.16L0.171,-0.16L0.12,-0.002L0.015,-0.002ZM0.3,-0.55L0.201,-0.248L0.4,-0.248L0.3,-0.55Z" style="fill:rgb(254,255,254);fill-rule:nonzero;"/>
            </g>
            <g transform="matrix(384.757,0,0,384.757,1040.62,2771.03)">
                <path d="M0.357,-0.002L0.179,-0.335L0.138,-0.41L0.138,-0.002L0.038,-0.002L0.038,-0.715L0.223,-0.715C0.252,-0.715 0.278,-0.71 0.303,-0.699C0.328,-0.688 0.349,-0.673 0.368,-0.654C0.386,-0.635 0.4,-0.614 0.41,-0.589C0.421,-0.564 0.426,-0.539 0.426,-0.512C0.426,-0.472 0.415,-0.435 0.393,-0.4C0.371,-0.365 0.339,-0.34 0.298,-0.324L0.471,-0.002L0.357,-0.002ZM0.223,-0.41C0.237,-0.41 0.25,-0.413 0.263,-0.419C0.275,-0.424 0.286,-0.432 0.295,-0.441C0.304,-0.45 0.312,-0.461 0.317,-0.473C0.322,-0.486 0.325,-0.499 0.325,-0.512C0.325,-0.526 0.323,-0.539 0.318,-0.552C0.313,-0.564 0.306,-0.575 0.297,-0.584C0.288,-0.593 0.277,-0.601 0.264,-0.606C0.251,-0.611 0.238,-0.614 0.223,-0.614L0.138,-0.614L0.138,-0.41L0.223,-0.41Z" style="fill:rgb(254,255,254);fill-rule:nonzero;"/>
            </g>
            <g transform="matrix(384.757,0,0,384.757,1230.3,2771.03)">
                <path d="M0.285,-0.614L0.285,-0.002L0.184,-0.002L0.184,-0.614L0.015,-0.614L0.015,-0.715L0.455,-0.715L0.455,-0.614L0.285,-0.614Z" style="fill:rgb(254,255,254);fill-rule:nonzero;"/>
            </g>
            <g transform="matrix(384.757,0,0,384.757,1411.14,2771.03)">
                <rect x="0.037" y="-0.711" width="0.1" height="0.709" style="fill:rgb(254,255,254);fill-rule:nonzero;"/>
            </g>
            <g transform="matrix(384.757,0,0,384.757,1478.86,2771.03)">
                <path d="M0.039,-0.002L0.039,-0.711L0.137,-0.711L0.429,-0.21L0.429,-0.711L0.53,-0.711L0.53,-0.002L0.434,-0.002L0.139,-0.509L0.139,-0.002L0.039,-0.002Z" style="fill:rgb(254,255,254);fill-rule:nonzero;"/>
            </g>
            <g transform="matrix(384.757,0,0,384.757,537.74,3057.08)">
                <path d="M0.138,-0.405L0.356,-0.405L0.356,-0.313L0.138,-0.313L0.138,-0.002L0.038,-0.002L0.038,-0.715L0.386,-0.715L0.386,-0.614L0.138,-0.614L0.138,-0.405Z" style="fill:rgb(254,255,254);fill-rule:nonzero;"/>
            </g>
            <g transform="matrix(384.757,0,0,384.757,688.565,3057.08)">
                <rect x="0.037" y="-0.711" width="0.1" height="0.709" style="fill:rgb(254,255,254);fill-rule:nonzero;"/>
            </g>
            <g transform="matrix(384.757,0,0,384.757,756.282,3057.08)">
                <path d="M0.285,-0.614L0.285,-0.002L0.184,-0.002L0.184,-0.614L0.015,-0.614L0.015,-0.715L0.455,-0.715L0.455,-0.614L0.285,-0.614Z" style="fill:rgb(254,255,254);fill-rule:nonzero;"/>
            </g>
            <g transform="matrix(384.757,0,0,384.757,937.118,3057.08)">
                <path d="M0.041,-0.715L0.468,-0.715L0.435,-0.645L0.184,-0.099L0.468,-0.099L0.468,0.002L0.027,0.002L0.31,-0.614L0.041,-0.614L0.041,-0.715Z" style="fill:rgb(254,255,254);fill-rule:nonzero;"/>
            </g>
            <g transform="matrix(384.757,0,0,384.757,1128.34,3057.08)">
                <path d="M0.138,-0.41L0.229,-0.41C0.243,-0.41 0.256,-0.413 0.269,-0.419C0.281,-0.424 0.292,-0.432 0.301,-0.441C0.31,-0.45 0.318,-0.461 0.323,-0.473C0.328,-0.486 0.331,-0.499 0.331,-0.512C0.331,-0.526 0.329,-0.539 0.324,-0.552C0.319,-0.564 0.312,-0.575 0.303,-0.584C0.294,-0.593 0.283,-0.601 0.27,-0.606C0.257,-0.611 0.244,-0.614 0.229,-0.614L0.138,-0.614L0.138,-0.41ZM0.138,-0.309L0.138,-0.002L0.038,-0.002L0.038,-0.715L0.229,-0.715C0.258,-0.715 0.284,-0.71 0.309,-0.699C0.334,-0.688 0.355,-0.673 0.374,-0.654C0.392,-0.635 0.406,-0.614 0.417,-0.589C0.427,-0.564 0.432,-0.539 0.432,-0.512C0.432,-0.484 0.427,-0.458 0.416,-0.434C0.405,-0.409 0.39,-0.388 0.372,-0.369C0.353,-0.35 0.332,-0.336 0.307,-0.325C0.282,-0.314 0.256,-0.309 0.229,-0.309L0.138,-0.309Z" style="fill:rgb(254,255,254);fill-rule:nonzero;"/>
            </g>
            <g transform="matrix(384.757,0,0,384.757,1258,3057.08)">
                <path d="M0.015,-0.002L0.247,-0.711L0.353,-0.711L0.586,-0.002L0.48,-0.002L0.428,-0.16L0.171,-0.16L0.12,-0.002L0.015,-0.002ZM0.3,-0.55L0.201,-0.248L0.4,-0.248L0.3,-0.55Z" style="fill:rgb(254,255,254);fill-rule:nonzero;"/>
            </g>
            <g transform="matrix(384.757,0,0,384.757,1441.15,3057.08)">
                <path d="M0.285,-0.614L0.285,-0.002L0.184,-0.002L0.184,-0.614L0.015,-0.614L0.015,-0.715L0.455,-0.715L0.455,-0.614L0.285,-0.614Z" style="fill:rgb(254,255,254);fill-rule:nonzero;"/>
            </g>
            <g transform="matrix(384.757,0,0,384.757,1621.98,3057.08)">
                <path d="M0.357,-0.002L0.179,-0.335L0.138,-0.41L0.138,-0.002L0.038,-0.002L0.038,-0.715L0.223,-0.715C0.252,-0.715 0.278,-0.71 0.303,-0.699C0.328,-0.688 0.349,-0.673 0.368,-0.654C0.386,-0.635 0.4,-0.614 0.41,-0.589C0.421,-0.564 0.426,-0.539 0.426,-0.512C0.426,-0.472 0.415,-0.435 0.393,-0.4C0.371,-0.365 0.339,-0.34 0.298,-0.324L0.471,-0.002L0.357,-0.002ZM0.223,-0.41C0.237,-0.41 0.25,-0.413 0.263,-0.419C0.275,-0.424 0.286,-0.432 0.295,-0.441C0.304,-0.45 0.312,-0.461 0.317,-0.473C0.322,-0.486 0.325,-0.499 0.325,-0.512C0.325,-0.526 0.323,-0.539 0.318,-0.552C0.313,-0.564 0.306,-0.575 0.297,-0.584C0.288,-0.593 0.277,-0.601 0.264,-0.606C0.251,-0.611 0.238,-0.614 0.223,-0.614L0.138,-0.614L0.138,-0.41L0.223,-0.41Z" style="fill:rgb(254,255,254);fill-rule:nonzero;"/>
            </g>
            <g transform="matrix(384.757,0,0,384.757,1811.67,3057.08)">
                <rect x="0.037" y="-0.711" width="0.1" height="0.709" style="fill:rgb(254,255,254);fill-rule:nonzero;"/>
            </g>
            <g transform="matrix(384.757,0,0,384.757,1879.39,3057.08)">
                <path d="M0.384,-0.72C0.429,-0.72 0.473,-0.712 0.516,-0.696L0.516,-0.584C0.474,-0.608 0.43,-0.62 0.384,-0.62C0.312,-0.62 0.25,-0.594 0.198,-0.542C0.146,-0.491 0.12,-0.429 0.12,-0.356C0.12,-0.321 0.127,-0.287 0.141,-0.256C0.154,-0.224 0.173,-0.196 0.197,-0.172C0.221,-0.148 0.249,-0.129 0.281,-0.115C0.313,-0.101 0.347,-0.094 0.384,-0.094C0.432,-0.094 0.476,-0.106 0.516,-0.13L0.516,-0.019C0.495,-0.01 0.473,-0.004 0.451,-0C0.428,0.004 0.406,0.006 0.384,0.006C0.282,0.006 0.196,-0.029 0.125,-0.1C0.093,-0.133 0.068,-0.172 0.049,-0.216C0.029,-0.259 0.02,-0.306 0.02,-0.356C0.02,-0.407 0.029,-0.454 0.049,-0.498C0.068,-0.542 0.093,-0.581 0.126,-0.614C0.159,-0.647 0.197,-0.673 0.242,-0.692C0.286,-0.711 0.333,-0.72 0.384,-0.72Z" style="fill:rgb(254,255,254);fill-rule:nonzero;"/>
            </g>
            <g transform="matrix(384.757,0,0,384.757,2091,3057.08)">
                <path d="M0.445,-0.711L0.25,-0.386L0.48,-0.002L0.363,-0.002L0.138,-0.376L0.138,-0.002L0.038,-0.002L0.038,-0.711L0.138,-0.711L0.138,-0.394L0.327,-0.711L0.445,-0.711Z" style="fill:rgb(254,255,254);fill-rule:nonzero;"/>
            </g>
        </g>
        <g transform="matrix(0.764806,0,0,0.839081,1539.74,-98.102)">
            <path d="M2838.27,4500.84C2838.27,4500.84 2925.96,4446.99 3022.88,4491.61C3119.8,4536.22 3181.33,4602.37 3273.64,4543.91" style="fill:none;stroke:rgb(254,255,254);stroke-width:25.95px;"/>
        </g>
        <g transform="matrix(0.00775004,0,0,-0.00775004,4049.08,3724.77)">
            <path d="M2225.1,5001.6C2106.3,4969 2016.3,4909.7 1920.6,4806.2C1819.1,4695.1 1769.3,4578.3 1744.4,4396.3C1732.9,4302.4 1727.2,2944.5 1731,621.3L1736.7,-3008.1L1782.7,-3123C1845.9,-3280.1 2003,-3437.1 2158.1,-3494.6C2253.9,-3531 2301.7,-3536.7 2435.8,-3531C2705.9,-3517.6 2751.8,-3485.1 3341.7,-2879.8C3615.6,-2596.3 3847.3,-2372.3 3853.1,-2379.9C3860.8,-2389.5 4058,-2847.2 4293.6,-3398.8C4713.1,-4385.2 4722.6,-4402.4 4831.8,-4519.2C5038.6,-4741.4 5329.8,-4829.5 5605.6,-4752.9C5699.4,-4728 6546,-4371.8 6693.5,-4297.1C6795,-4247.3 6923.3,-4124.7 6990.4,-4017.5C7086.2,-3866.2 7114.9,-3745.5 7105.3,-3546.3L7095.7,-3372L6670.4,-2376C6434.8,-1828.2 6239.5,-1370.5 6233.7,-1357.1C6226.1,-1339.9 6400.3,-1332.2 6988.3,-1328.4L7750.6,-1322.7L7878.9,-1261.4C8093.4,-1159.9 8217.9,-999 8262,-761.5C8288.8,-617.9 8248.6,-434 8162.4,-298C8129.8,-246.3 6988.3,872.2 5473.4,2337.4C2552.6,5160.6 2732.6,5001.6 2454.9,5018.9C2368.7,5022.7 2276.8,5016.9 2225.1,5001.6Z" style="fill:white;fill-rule:nonzero;"/>
        </g>
    </g>
</svg>
